<mxfile host="app.diagrams.net" modified="2024-04-22T14:59:06.178Z" agent="Mozilla/5.0 (Windows NT 10.0; Win64; x64) AppleWebKit/537.36 (KHTML, like Gecko) Chrome/123.0.0.0 Safari/537.36" etag="xDJGX5zjwZFB2TjO81BJ" version="24.2.5" type="device">
  <diagram name="Pagina-1" id="-Pcg8yXQEKE8fG4PsbwW">
    <mxGraphModel dx="1808" dy="652" grid="1" gridSize="10" guides="1" tooltips="1" connect="1" arrows="1" fold="1" page="1" pageScale="1" pageWidth="1500" pageHeight="500" math="1" shadow="0">
      <root>
        <mxCell id="0" />
        <mxCell id="1" parent="0" />
        <mxCell id="WvrHQ3Qqk1JwB2OphqTi-36" style="edgeStyle=orthogonalEdgeStyle;rounded=0;orthogonalLoop=1;jettySize=auto;html=1;exitX=0.5;exitY=1;exitDx=0;exitDy=0;entryX=0;entryY=0.5;entryDx=0;entryDy=0;" parent="1" source="WvrHQ3Qqk1JwB2OphqTi-1" target="WvrHQ3Qqk1JwB2OphqTi-15" edge="1">
          <mxGeometry relative="1" as="geometry" />
        </mxCell>
        <mxCell id="WvrHQ3Qqk1JwB2OphqTi-1" value="$$x_1$$" style="ellipse;whiteSpace=wrap;html=1;aspect=fixed;strokeWidth=2;" parent="1" vertex="1">
          <mxGeometry x="480" y="100" width="30" height="30" as="geometry" />
        </mxCell>
        <mxCell id="WvrHQ3Qqk1JwB2OphqTi-35" style="edgeStyle=orthogonalEdgeStyle;rounded=0;orthogonalLoop=1;jettySize=auto;html=1;exitX=0.5;exitY=1;exitDx=0;exitDy=0;entryX=0.5;entryY=0;entryDx=0;entryDy=0;" parent="1" source="WvrHQ3Qqk1JwB2OphqTi-10" target="WvrHQ3Qqk1JwB2OphqTi-15" edge="1">
          <mxGeometry relative="1" as="geometry" />
        </mxCell>
        <mxCell id="WvrHQ3Qqk1JwB2OphqTi-10" value="$$x_2$$" style="ellipse;whiteSpace=wrap;html=1;aspect=fixed;strokeWidth=2;" parent="1" vertex="1">
          <mxGeometry x="530" y="100" width="30" height="30" as="geometry" />
        </mxCell>
        <mxCell id="WvrHQ3Qqk1JwB2OphqTi-38" style="edgeStyle=orthogonalEdgeStyle;rounded=0;orthogonalLoop=1;jettySize=auto;html=1;exitX=0.5;exitY=1;exitDx=0;exitDy=0;entryX=0;entryY=0.5;entryDx=0;entryDy=0;" parent="1" source="WvrHQ3Qqk1JwB2OphqTi-11" target="WvrHQ3Qqk1JwB2OphqTi-18" edge="1">
          <mxGeometry relative="1" as="geometry" />
        </mxCell>
        <mxCell id="WvrHQ3Qqk1JwB2OphqTi-39" style="edgeStyle=orthogonalEdgeStyle;rounded=0;orthogonalLoop=1;jettySize=auto;html=1;exitX=0.5;exitY=1;exitDx=0;exitDy=0;" parent="1" source="WvrHQ3Qqk1JwB2OphqTi-11" target="WvrHQ3Qqk1JwB2OphqTi-27" edge="1">
          <mxGeometry relative="1" as="geometry" />
        </mxCell>
        <mxCell id="WvrHQ3Qqk1JwB2OphqTi-11" value="$$x_3$$" style="ellipse;whiteSpace=wrap;html=1;aspect=fixed;strokeWidth=2;" parent="1" vertex="1">
          <mxGeometry x="580" y="100" width="30" height="30" as="geometry" />
        </mxCell>
        <mxCell id="WvrHQ3Qqk1JwB2OphqTi-37" style="edgeStyle=orthogonalEdgeStyle;rounded=0;orthogonalLoop=1;jettySize=auto;html=1;exitX=0.5;exitY=1;exitDx=0;exitDy=0;entryX=0.5;entryY=0;entryDx=0;entryDy=0;" parent="1" source="WvrHQ3Qqk1JwB2OphqTi-12" target="WvrHQ3Qqk1JwB2OphqTi-18" edge="1">
          <mxGeometry relative="1" as="geometry" />
        </mxCell>
        <mxCell id="WvrHQ3Qqk1JwB2OphqTi-12" value="$$x_4$$" style="ellipse;whiteSpace=wrap;html=1;aspect=fixed;strokeWidth=2;" parent="1" vertex="1">
          <mxGeometry x="630" y="100" width="30" height="30" as="geometry" />
        </mxCell>
        <mxCell id="WvrHQ3Qqk1JwB2OphqTi-44" style="edgeStyle=orthogonalEdgeStyle;rounded=0;orthogonalLoop=1;jettySize=auto;html=1;exitX=0.5;exitY=1;exitDx=0;exitDy=0;entryX=0;entryY=0.5;entryDx=0;entryDy=0;" parent="1" source="WvrHQ3Qqk1JwB2OphqTi-13" target="WvrHQ3Qqk1JwB2OphqTi-21" edge="1">
          <mxGeometry relative="1" as="geometry" />
        </mxCell>
        <mxCell id="WvrHQ3Qqk1JwB2OphqTi-50" style="edgeStyle=orthogonalEdgeStyle;rounded=0;orthogonalLoop=1;jettySize=auto;html=1;exitX=0.5;exitY=1;exitDx=0;exitDy=0;entryX=0.5;entryY=0;entryDx=0;entryDy=0;" parent="1" source="WvrHQ3Qqk1JwB2OphqTi-13" target="WvrHQ3Qqk1JwB2OphqTi-48" edge="1">
          <mxGeometry relative="1" as="geometry" />
        </mxCell>
        <mxCell id="WvrHQ3Qqk1JwB2OphqTi-13" value="$$x_5$$" style="ellipse;whiteSpace=wrap;html=1;aspect=fixed;strokeWidth=2;" parent="1" vertex="1">
          <mxGeometry x="680" y="100" width="30" height="30" as="geometry" />
        </mxCell>
        <mxCell id="WvrHQ3Qqk1JwB2OphqTi-43" style="edgeStyle=orthogonalEdgeStyle;rounded=0;orthogonalLoop=1;jettySize=auto;html=1;exitX=0.5;exitY=1;exitDx=0;exitDy=0;entryX=0.5;entryY=0;entryDx=0;entryDy=0;" parent="1" source="WvrHQ3Qqk1JwB2OphqTi-14" target="WvrHQ3Qqk1JwB2OphqTi-21" edge="1">
          <mxGeometry relative="1" as="geometry" />
        </mxCell>
        <mxCell id="WvrHQ3Qqk1JwB2OphqTi-14" value="$$x_6$$" style="ellipse;whiteSpace=wrap;html=1;aspect=fixed;strokeWidth=2;" parent="1" vertex="1">
          <mxGeometry x="730" y="100" width="30" height="30" as="geometry" />
        </mxCell>
        <mxCell id="WvrHQ3Qqk1JwB2OphqTi-40" style="edgeStyle=orthogonalEdgeStyle;rounded=0;orthogonalLoop=1;jettySize=auto;html=1;exitX=0.5;exitY=1;exitDx=0;exitDy=0;entryX=0;entryY=0.5;entryDx=0;entryDy=0;" parent="1" source="WvrHQ3Qqk1JwB2OphqTi-15" target="WvrHQ3Qqk1JwB2OphqTi-27" edge="1">
          <mxGeometry relative="1" as="geometry" />
        </mxCell>
        <mxCell id="WvrHQ3Qqk1JwB2OphqTi-41" style="edgeStyle=orthogonalEdgeStyle;rounded=0;orthogonalLoop=1;jettySize=auto;html=1;exitX=0.5;exitY=1;exitDx=0;exitDy=0;entryX=0;entryY=0.5;entryDx=0;entryDy=0;" parent="1" source="WvrHQ3Qqk1JwB2OphqTi-15" target="WvrHQ3Qqk1JwB2OphqTi-24" edge="1">
          <mxGeometry relative="1" as="geometry" />
        </mxCell>
        <mxCell id="WvrHQ3Qqk1JwB2OphqTi-15" value="$$s_1$$" style="ellipse;whiteSpace=wrap;html=1;aspect=fixed;strokeWidth=2;fillColor=#d5e8d4;strokeColor=default;dashed=1;" parent="1" vertex="1">
          <mxGeometry x="530" y="150" width="30" height="30" as="geometry" />
        </mxCell>
        <mxCell id="WvrHQ3Qqk1JwB2OphqTi-42" style="edgeStyle=orthogonalEdgeStyle;rounded=0;orthogonalLoop=1;jettySize=auto;html=1;exitX=0.5;exitY=1;exitDx=0;exitDy=0;entryX=0.5;entryY=0;entryDx=0;entryDy=0;" parent="1" source="WvrHQ3Qqk1JwB2OphqTi-18" target="WvrHQ3Qqk1JwB2OphqTi-24" edge="1">
          <mxGeometry relative="1" as="geometry" />
        </mxCell>
        <mxCell id="WvrHQ3Qqk1JwB2OphqTi-18" value="$$s_2$$" style="ellipse;whiteSpace=wrap;html=1;aspect=fixed;strokeWidth=2;fillColor=#d5e8d4;strokeColor=default;" parent="1" vertex="1">
          <mxGeometry x="630" y="150" width="30" height="30" as="geometry" />
        </mxCell>
        <mxCell id="WvrHQ3Qqk1JwB2OphqTi-46" style="edgeStyle=orthogonalEdgeStyle;rounded=0;orthogonalLoop=1;jettySize=auto;html=1;exitX=0.5;exitY=1;exitDx=0;exitDy=0;entryX=0.5;entryY=0;entryDx=0;entryDy=0;" parent="1" source="WvrHQ3Qqk1JwB2OphqTi-21" target="WvrHQ3Qqk1JwB2OphqTi-45" edge="1">
          <mxGeometry relative="1" as="geometry" />
        </mxCell>
        <mxCell id="WvrHQ3Qqk1JwB2OphqTi-21" value="$$s_3$$" style="ellipse;whiteSpace=wrap;html=1;aspect=fixed;strokeWidth=2;fillColor=#d5e8d4;strokeColor=default;" parent="1" vertex="1">
          <mxGeometry x="730" y="150" width="30" height="30" as="geometry" />
        </mxCell>
        <mxCell id="WvrHQ3Qqk1JwB2OphqTi-47" style="edgeStyle=orthogonalEdgeStyle;rounded=0;orthogonalLoop=1;jettySize=auto;html=1;exitX=0.5;exitY=1;exitDx=0;exitDy=0;entryX=0;entryY=0.5;entryDx=0;entryDy=0;" parent="1" source="WvrHQ3Qqk1JwB2OphqTi-24" target="WvrHQ3Qqk1JwB2OphqTi-45" edge="1">
          <mxGeometry relative="1" as="geometry" />
        </mxCell>
        <mxCell id="WvrHQ3Qqk1JwB2OphqTi-49" style="edgeStyle=orthogonalEdgeStyle;rounded=0;orthogonalLoop=1;jettySize=auto;html=1;exitX=0.5;exitY=1;exitDx=0;exitDy=0;entryX=0;entryY=0.5;entryDx=0;entryDy=0;" parent="1" source="WvrHQ3Qqk1JwB2OphqTi-24" target="WvrHQ3Qqk1JwB2OphqTi-48" edge="1">
          <mxGeometry relative="1" as="geometry">
            <Array as="points">
              <mxPoint x="645" y="245" />
            </Array>
          </mxGeometry>
        </mxCell>
        <mxCell id="WvrHQ3Qqk1JwB2OphqTi-24" value="$$o_1$$" style="ellipse;whiteSpace=wrap;html=1;aspect=fixed;strokeWidth=2;fillColor=#f8cecc;strokeColor=default;dashed=1;" parent="1" vertex="1">
          <mxGeometry x="630" y="210" width="30" height="30" as="geometry" />
        </mxCell>
        <mxCell id="WvrHQ3Qqk1JwB2OphqTi-27" value="" style="ellipse;whiteSpace=wrap;html=1;aspect=fixed;strokeWidth=2;fillColor=#f8cecc;strokeColor=default;dashed=1;" parent="1" vertex="1">
          <mxGeometry x="580" y="185" width="30" height="30" as="geometry" />
        </mxCell>
        <mxCell id="WvrHQ3Qqk1JwB2OphqTi-45" value="" style="ellipse;whiteSpace=wrap;html=1;aspect=fixed;strokeWidth=2;fillColor=#dae8fc;strokeColor=default;dashed=1;" parent="1" vertex="1">
          <mxGeometry x="730" y="250" width="30" height="30" as="geometry" />
        </mxCell>
        <mxCell id="WvrHQ3Qqk1JwB2OphqTi-48" value="" style="ellipse;whiteSpace=wrap;html=1;aspect=fixed;strokeWidth=2;fillColor=#dae8fc;strokeColor=default;dashed=1;" parent="1" vertex="1">
          <mxGeometry x="680" y="230" width="30" height="30" as="geometry" />
        </mxCell>
      </root>
    </mxGraphModel>
  </diagram>
</mxfile>
